# xmcd CD database file
#
# Track frame offsets:
#	150
#	33318
#	44093
#	87483
#	130421
#	163284
#	180523
#
# Disc length: 3260 seconds
#
# Revision: 1
# Processed by: cddbd v1.5.2PL0 Copyright (c) Steve Scherf et al.
# Submitted via: CDex 1.51
#
DISCID=600cba07
DTITLE=Keith Jarrett Trio - Hamburg Concert [Disc2]
DYEAR=1972
DGENRE=Jazz
TTITLE0=Rainbow
TTITLE1=Solo Piano Improvisation
TTITLE2=Everything That Lives Laments
TTITLE3=Piece for Ornette
TTITLE4=Take Me Back
TTITLE5=Life Dance
TTITLE6=Song for Che
EXTD=YEAR: 1972
EXTT0=
EXTT1=
EXTT2=
EXTT3=
EXTT4=
EXTT5=
EXTT6=
PLAYORDER=
